<svg height="480pt" viewBox="0 0 480.00001 480" width="480pt" xmlns="http://www.w3.org/2000/svg"><path d="m192 272-16 88-24 24v48h-80v-32l-32-32-32-72v-32l8-24 8-96h40l8 112 32 48h32l16-40zm0 0" fill="#ffead0"/><path d="m472 264v32l-32 72-32 32v32h-80v-48l-24-24-16-88 40-8 16 40h32l32-48 8-112h40l8 96zm0 0" fill="#ffead0"/><path d="m264 224v24c0 4.417969-3.582031 8-8 8h-32c-4.417969 0-8-3.582031-8-8v-24zm0 0" fill="#acabb1"/><path d="m264 196.320312v27.679688h-48v-27.679688c-37.675781-11.847656-61.066406-49.417968-55.074219-88.457031 5.996094-39.035156 39.578125-67.859375 79.074219-67.859375s73.078125 28.824219 79.074219 67.859375c5.992187 39.039063-17.398438 76.609375-55.074219 88.457031zm0 0" fill="#ffe26e"/><path d="m56 432h112v40h-112zm0 0" fill="#957856"/><path d="m312 432h112v40h-112zm0 0" fill="#957856"/><g fill="#231f20"><path d="m479.59375 261.472656-7.699219-23.074218-7.894531-95.0625c-.347656-4.15625-3.828125-7.351563-8-7.335938h-40c-4.207031-.011719-7.703125 3.238281-8 7.433594l-7.847656 109.886718-28.433594 42.679688h-22.304688l-13.980468-34.96875c-1.4375-3.59375-5.242188-5.648438-9.035156-4.871094l-40 8c-4.277344.855469-7.082032 4.980469-6.300782 9.273438l16 88c.289063 1.597656 1.0625 3.074218 2.214844 4.222656l21.6875 21.65625v36.6875h-8c-4.417969 0-8 3.582031-8 8v40c0 4.417969 3.582031 8 8 8h112c4.417969 0 8-3.582031 8-8v-40c0-4.417969-3.582031-8-8-8h-8v-20.6875l29.65625-29.65625c.695312-.691406 1.257812-1.503906 1.65625-2.398438l32-72c.453125-1.027343.6875-2.136718.6875-3.257812v-32c0-.859375-.136719-1.710938-.40625-2.527344zm-63.59375 202.527344h-96v-24h96zm48-169.695312-30.703125 69.085937-30.953125 30.953125c-1.5 1.5-2.34375 3.535156-2.34375 5.65625v24h-64v-40c0-2.121094-.84375-4.15625-2.34375-5.65625l-22.230469-22.230469-14.144531-77.808593 25.757812-5.152344 13.527344 33.816406c1.214844 3.039062 4.160156 5.03125 7.433594 5.03125h32c2.675781 0 5.171875-1.335938 6.65625-3.558594l32-48c.773438-1.15625 1.234375-2.488281 1.34375-3.875l7.449219-104.566406h25.191406l7.359375 88.664062c.054688.632813.183594 1.257813.382812 1.863282l7.617188 22.769531zm0 0"/><path d="m193.601562 264.160156-40-8c-3.785156-.757812-7.570312 1.289063-9 4.871094l-14.015624 34.96875h-22.304688l-28.449219-42.679688-7.832031-109.886718c-.296875-4.195313-3.792969-7.445313-8-7.433594h-40c-4.171875-.015625-7.652344 3.179688-8 7.335938l-7.894531 95.0625-7.699219 23.089843c-.265625.808594-.40625 1.65625-.40625 2.511719v32c0 1.117188.234375 2.226562.6875 3.246094l32 72c.398438.898437.960938 1.710937 1.65625 2.402344l29.65625 29.664062v20.6875h-8c-4.417969 0-8 3.582031-8 8v40c0 4.417969 3.582031 8 8 8h112c4.417969 0 8-3.582031 8-8v-40c0-4.417969-3.582031-8-8-8h-8v-36.6875l21.65625-21.65625c1.152344-1.148438 1.921875-2.625 2.214844-4.222656l16-88c.78125-4.285156-2.007813-8.402344-6.269532-9.273438zm-33.601562 199.839844h-96v-24h96zm8.574219-107.886719-22.230469 22.230469c-1.5 1.5-2.34375 3.535156-2.34375 5.65625v40h-64v-24c0-2.121094-.84375-4.15625-2.34375-5.65625l-30.953125-30.953125-30.703125-69.085937v-29.007813l7.59375-22.769531c.207031-.601563.34375-1.226563.40625-1.863282l7.359375-88.664062h25.191406l7.449219 104.566406c.105469 1.382813.5625 2.71875 1.328125 3.875l32 48c1.488281 2.226563 3.992187 3.5625 6.671875 3.558594h32c3.273438 0 6.21875-1.992188 7.433594-5.03125l13.527344-33.816406 25.757812 5.152344zm0 0"/><path d="m232 0h16v16h-16zm0 0"/><path d="m149.492188 40.804688 11.316406-11.316407 11.3125 11.316407-11.3125 11.3125zm0 0"/><path d="m120 112h16v16h-16zm0 0"/><path d="m149.492188 199.195312 11.316406-11.3125 11.3125 11.3125-11.3125 11.3125zm0 0"/><path d="m307.886719 199.195312 11.3125-11.3125 11.3125 11.3125-11.3125 11.3125zm0 0"/><path d="m344 112h16v16h-16zm0 0"/><path d="m307.886719 40.804688 11.3125-11.316407 11.3125 11.316407-11.3125 11.3125zm0 0"/><path d="m328 120c-.007812-44.386719-33.074219-81.820312-77.121094-87.308594-44.046875-5.488281-85.289062 22.691406-96.183594 65.71875-10.898437 43.03125 11.957032 87.441406 53.304688 103.582032v46.007812c0 8.835938 7.164062 16 16 16h32c8.835938 0 16-7.164062 16-16v-46.007812c33.847656-13.09375 56.117188-45.699219 56-81.992188zm-104 128v-16h32v16zm40-60.167969v-40.519531l21.65625-21.65625-11.3125-11.3125-24 24c-1.5 1.5-2.34375 3.535156-2.34375 5.65625v72h-16v-72c0-2.121094-.84375-4.15625-2.34375-5.65625l-24-24-11.3125 11.3125 21.65625 21.65625v40.519531c-33.0625-11.6875-52.894531-45.496093-46.964844-80.058593 5.929688-34.5625 35.898438-59.824219 70.964844-59.824219s65.035156 25.261719 70.964844 59.824219c5.929687 34.5625-13.902344 68.371093-46.964844 80.058593zm0 0"/></g></svg>