<?xml version="1.0"?>
<svg xmlns="http://www.w3.org/2000/svg" viewBox="0 0 64 64" width="512" height="512"><path d="m18 47h10v3h-10z" fill="#10bde0"/><path d="m18 51a2 2 0 0 0 2 2h6a2 2 0 0 0 2-2v-1h-10z" fill="#10bde0"/><path d="m61 37-4-5-4 5z" fill="#6b4a08"/><path d="m43 22-5-5v-10h5v-4h-30v10h-10v48h40z" fill="#ebebeb"/><path d="m25.315 43.793a13.048 13.048 0 0 1 -4.63 0 13.848 13.848 0 0 1 -2.685-.729v7.936a2 2 0 0 0 2 2h6a2 2 0 0 0 2-2v-7.936a13.848 13.848 0 0 1 -2.685.729z" fill="#10bde0"/><path d="m43 61h4v-35l-4-4z" fill="#7d7d7d"/><path d="m43 3h4v4h-4z" fill="#7d7d7d"/><path d="m21 55a2 2 0 0 0 4 0v-2h-4z" fill="#10bde0"/><path d="m38 7v10l13 13 10-10-13-13z" fill="#e39d10"/><path d="m13 3-10 10h10z" fill="#7d7d7d"/><circle cx="44" cy="13" fill="#10bde0" r="2"/><path d="m53 60a1 1 0 0 0 1 1h6a1 1 0 0 0 1-1v-23h-8z" fill="#ebebeb"/><circle cx="23" cy="30" fill="#e39d10" r="14"/><path d="m38 30a15 15 0 1 0 -21 13.739v7.261a3 3 0 0 0 3 3v1a3 3 0 0 0 6 0v-1a3 3 0 0 0 3-3v-7.261a15.017 15.017 0 0 0 9-13.739zm-28 0a13 13 0 1 1 16.509 12.505l1.481-10.363-1.98-.284-1.579 11.059a12.377 12.377 0 0 1 -2.862 0l-1.579-11.059-1.98.284 1.481 10.363a13.012 13.012 0 0 1 -9.491-12.505zm9 18h8v1h-8zm5 7a1 1 0 0 1 -2 0v-1h2zm2-3h-6a1 1 0 0 1 -1-1h8a1 1 0 0 1 -1 1zm1-6h-8v-1.558a14.616 14.616 0 0 0 8 0z"/><path d="m48.707 6.293a1 1 0 0 0 -.707-.293v-3a1 1 0 0 0 -1-1h-34v.009a.987.987 0 0 0 -.707.284l-10 10a1 1 0 0 0 -.284.707h-.009v48a1 1 0 0 0 1 1h44a1 1 0 0 0 1-1v-32.586l2.293 2.293a1 1 0 0 0 1.414 0l10-10a1 1 0 0 0 0-1.414zm-2.707-.293h-2v-2h2zm-34-.586v6.586h-6.586zm-8 54.586v-46h9a1 1 0 0 0 1-1v-9h28v2h-4a1 1 0 0 0 -1 1v10a1 1 0 0 0 .293.707l4.707 4.707v37.586zm42 0h-2v-35.586l2 2zm5-31.414-12-12v-8.586h8.586l12 12z"/><path d="m22.553 30.9a1 1 0 0 0 .894 0l3.553-1.782 3.553 1.782.894-1.79-4-2a1 1 0 0 0 -.894 0l-3.553 1.772-3.553-1.777a1 1 0 0 0 -.894 0l-4 2 .894 1.79 3.553-1.777z"/><path d="m44 10a3 3 0 1 0 3 3 3 3 0 0 0 -3-3zm0 4a1 1 0 1 1 1-1 1 1 0 0 1 -1 1z"/><path d="m27 12h8v2h-8z"/><path d="m32 8h3v2h-3z"/><path d="m22 8h8v2h-8z"/><path d="m48.964 20.5h7.071v2h-7.071z" transform="matrix(.70710678 -.70710678 .70710678 .70710678 .174 43.42)"/><path d="m61.781 36.375-4-5a1.036 1.036 0 0 0 -1.562 0l-4 5 .012.01a.98.98 0 0 0 -.231.615v23a2 2 0 0 0 2 2h6a2 2 0 0 0 2-2v-23a.98.98 0 0 0 -.231-.615zm-4.781-2.775 1.92 2.4h-3.84zm-3 26.4v-22h6v22z"/><path d="m32 45h8v2h-8z"/><path d="m32 49h8v2h-8z"/><path d="m32 53h8v2h-8z"/></svg>
