<?xml version="1.0" encoding="utf-8"?>
<!-- Generator: Adobe Illustrator 23.1.1, SVG Export Plug-In . SVG Version: 6.00 Build 0)  -->
<svg version="1.1" id="layer" xmlns="http://www.w3.org/2000/svg" xmlns:xlink="http://www.w3.org/1999/xlink" x="0px" y="0px"
	 viewBox="0 0 600.1 106" style="enable-background:new 0 0 600.1 106;" xml:space="preserve">
<path d="M82.2,23.5C71.6,10.1,54.3,3.8,37.5,7.2c-34.4,7.1-49,47-27.2,74.6C20.9,95.2,38.2,101.5,55,98.1
	C89.5,91,104.1,51.1,82.2,23.5z M70.6,75.8c-0.7-0.1-1.4-0.3-2.1-0.6c-0.3-0.2-0.7-0.1-0.9,0.2c-0.1,0.2-0.1,0.4,0,0.6
	c0.2,0.6,0.4,1.2,0.5,1.9c1,6.9-6.3,13.7-16.4,15.1s-18.9-3.1-19.9-10c-0.1-0.7-0.1-1.5,0-2.2c0.1-0.3-0.1-0.7-0.5-0.8
	c-0.2-0.1-0.5,0-0.6,0.2c-0.5,0.4-1.1,0.7-1.6,1c-6.3,3.1-15-1.8-19.4-10.9s-2.9-19,3.4-22c0.7-0.3,1.3-0.6,2.1-0.7
	c0.3,0,0.6-0.3,0.6-0.7c0-0.2-0.2-0.4-0.4-0.5c-0.5-0.4-1-0.8-1.5-1.2c-4.9-5-2.9-14.8,4.3-21.8c7.3-7,17.1-8.6,22-3.6
	c0.5,0.5,1,1.1,1.3,1.8c0.1,0.3,0.5,0.5,0.8,0.3c0.2-0.1,0.3-0.3,0.4-0.5c0.2-0.6,0.4-1.2,0.8-1.8c3.3-6.2,13.2-7.4,22.1-2.6
	c8.9,4.7,13.5,13.6,10.2,19.8c-0.3,0.7-0.8,1.3-1.3,1.8c-0.3,0.2-0.3,0.6-0.1,0.9c0.1,0.2,0.4,0.2,0.6,0.2c0.6,0,1.3,0,1.9,0.1
	C83.8,41,88,50.1,86.2,60C84.5,69.9,77.5,77,70.6,75.8z M66.9,42.2c-4,0.5-8.7-0.4-13.2-2.8s-8-6-9.8-9.6c-0.1-0.3-0.5-0.5-0.8-0.4
	c-0.2,0.1-0.4,0.3-0.4,0.6c-0.8,4-3.1,8.2-6.7,11.7s-8.1,5.8-12.2,6.4c-0.3,0-0.6,0.3-0.6,0.6c0,0.3,0.2,0.5,0.4,0.6
	c3.5,2,6.8,5.5,9,10c2.3,4.7,3,9.5,2.3,13.6c-0.1,0.3,0.1,0.7,0.4,0.8c0.3,0.1,0.6,0,0.7-0.2c3-2.8,7.3-4.8,12.3-5.5
	c5.1-0.7,10,0.1,13.6,2c0.3,0.2,0.7,0.2,0.9-0.1c0.2-0.2,0.2-0.5,0-0.7c-1.7-3.7-2.3-8.4-1.4-13.4c0.9-5.1,3.2-9.4,6.1-12.3
	c0.3-0.2,0.3-0.6,0.1-0.9C67.4,42.2,67.1,42.1,66.9,42.2z M123,69.2h16.4c0,6.7,5.9,12.4,15.5,12.4c9.7,0,15.7-4.5,15.7-10.8
	c0-5.6-4.5-8.5-10.8-9.9l-11.4-2.7c-15.7-4.1-22.9-12.2-22.9-24.7c0-13.7,12.4-24.7,29.9-24.7c14.4,0,29.9,7.6,29.9,25.2h-16.9
	c0-6.1-6.3-10.3-12.6-10.3c-7.4,0-12.4,4.5-12.4,10.3c0,5.2,4.9,8.1,10.1,9.4l12.8,3.1c18.1,4.5,22,15.7,22,24.7
	c0,16-15.9,25.4-33.2,25.4C139.4,96.6,123.3,86.7,123,69.2z M196.2,52.4c0-26.7,20.2-43.6,44.2-43.6s44.3,16.9,44.3,43.6
	s-20.4,44.2-44.4,44.2S196.2,79.1,196.2,52.4z M267,52.4c0-16.2-12.3-27.1-26.7-27.1s-26.5,10.8-26.5,27.1
	c0,16.4,12.1,27.4,26.5,27.4S267,68.8,267,52.4z M351.5,11.9l-3.1,16.8c-3.9-1.8-8.1-2.8-12.4-2.9c-15.3,0-22.5,16-22.5,38.8v30.3
	h-17.9V10.7h17.9v18.9c4.3-14.8,12.8-20.7,23.6-20.7C342.8,8.8,348.8,10.2,351.5,11.9z M442.6,10.6v84.2h-17.7V82.2
	c-5.6,9.6-17.7,14.4-29,14.4c-22.9,0-41.8-17.3-41.8-44c0-26.9,18.9-43.8,41.6-43.8c11.9,0,23.6,4.7,29.2,14.2V10.5h17.7L442.6,10.6
	L442.6,10.6z M424.8,52.4c0-16.9-13.9-26.9-26.9-26.9c-14.4,0-26.1,11-26.1,26.9c0,15.7,11.7,27.4,26.1,27.4
	C412.2,79.8,424.8,69.4,424.8,52.4z M512.3,11.9l-3.1,16.8c-3.9-1.8-8.1-2.8-12.4-2.9c-15.3,0-22.5,16-22.5,38.8v30.3h-17.8V10.7
	h17.9v18.9c4.3-14.8,12.8-20.7,23.6-20.7C503.6,8.8,509.6,10.2,512.3,11.9z M599.8,59.8h-67.1c2.3,13.7,12.4,20.4,26.1,20.4
	c9.7,0,18.9-4.1,23.6-11.9l14.1,7c-7.4,14.1-22.5,21.3-38.6,21.3c-24.3,0-43.4-17.5-43.4-44.2S534,8.8,557.9,8.8
	s42.2,16.9,42.2,43.4C600.1,54.6,599.9,57.1,599.8,59.8z M582.5,45.6c-1.6-13.2-11.4-20.4-24.3-20.4s-22.7,6.5-25.2,20.4H582.5z"/>
</svg>
