<svg width="204" height="55" viewBox="0 0 204 55" fill="none" xmlns="http://www.w3.org/2000/svg">
<path fill-rule="evenodd" clip-rule="evenodd" d="M0 27.2735C0 42.3468 12.2365 54.5469 27.3053 54.5469C42.3742 54.5248 54.5885 42.3247 54.6107 27.2735C54.6107 12.2222 42.3742 0 27.3053 0C12.2365 0 0 12.2001 0 27.2735ZM4.71316 27.2735C4.71316 14.8081 14.8254 4.70765 27.3053 4.70765C39.7852 4.72976 49.8754 14.8081 49.8975 27.2735C49.8975 39.7388 39.7852 49.8393 27.3053 49.8393C14.8254 49.8393 4.71316 39.7388 4.71316 27.2735ZM35.5367 26.2788H42.3962L42.4183 30.8981H37.1741L39.4311 37.3297V37.8601H34.0542L31.7971 30.8981H23.101L20.844 37.8601H15.4671V37.3297L17.7241 30.8981H12.4799V26.2788H19.3172L24.0525 12.7305H30.8235L35.5367 26.2788ZM27.261 18.0128L24.5836 26.2788H30.2925L27.6151 18.0128H27.261ZM65.0326 35.2521L71.4717 16.8193H76.5611L83.0002 35.2521V35.6499H78.973L77.5789 31.4506H70.4539L69.0598 35.6499H65.0326V35.2521ZM76.6717 28.5111L74.127 20.7755H73.8615L71.3168 28.5111H76.6717ZM103.468 21.969V19.3168L106.92 17.7034H107.318V21.969H110.66V24.5328H107.318V32.7325L107.517 32.9535H110.77V35.6499H107.473C105.017 35.6499 103.468 34.3459 103.468 31.9148V24.5328H100.481V21.969H103.468ZM119.82 21.6596C123.958 21.6596 127.167 24.135 127.167 28.7984C127.167 33.4619 123.958 35.9594 119.82 35.9594C115.682 35.9594 112.496 33.4398 112.496 28.7984C112.496 24.1571 115.705 21.6596 119.82 21.6596ZM119.82 33.1525C121.922 33.1525 123.294 31.5611 123.294 28.7763C123.294 25.9915 121.9 24.4444 119.82 24.4444C117.74 24.4444 116.368 26.0136 116.368 28.7763C116.368 31.539 117.762 33.1525 119.82 33.1525ZM135.575 21.6596C137.898 21.6596 139.138 22.6763 139.779 23.5161H140.045L140.775 21.9469H143.452V34.8764C143.452 38.8326 140.864 41.0869 136.438 41.0869C132.145 41.0869 129.888 38.921 129.379 36.4014V36.0036H132.964C133.207 37.2634 134.137 38.4126 136.305 38.4126C138.474 38.4126 139.602 37.1971 139.602 35.2079V33.705H139.337C138.607 34.4565 137.456 35.1416 135.575 35.1416C132.278 35.1416 129.291 32.843 129.291 28.4006C129.291 23.9582 132.3 21.6817 135.575 21.6596ZM136.482 32.3568C138.385 32.3568 139.801 31.0086 139.801 28.4006C139.801 25.7926 138.385 24.4444 136.482 24.4444C134.579 24.4444 133.163 25.7926 133.163 28.4006C133.163 31.0086 134.579 32.3568 136.482 32.3568ZM150.755 21.969V23.6708H151.02C151.507 22.5437 152.458 21.9248 154.14 21.9248H155.6V24.8422H154.074C151.949 24.8422 150.909 25.9252 150.909 28.3564V35.6499H147.059V21.969H150.755ZM157.238 26.1683C157.636 23.4719 160.159 21.6375 163.81 21.6375C167.461 21.6375 170.138 23.4719 170.138 27.0745V35.6278H166.487V34.0144H166.222C165.691 34.6996 164.562 35.871 161.951 35.871C158.942 35.871 156.884 34.3459 156.884 31.8485C156.884 29.2847 159.052 28.0691 161.774 27.7817L166.354 27.2955V26.8093C166.354 25.1295 165.469 24.3339 163.766 24.3339C162.062 24.3339 161.066 25.1517 160.911 26.6104H157.238V26.1683ZM162.903 33.1967C164.894 33.1967 166.354 31.9369 166.354 29.793V29.5941L162.548 29.9919C161.442 30.1024 160.712 30.6108 160.712 31.5611C160.734 32.4894 161.508 33.1967 162.903 33.1967ZM177.263 21.969V23.3835H177.529C178.06 22.7868 179.21 21.6817 181.645 21.6817C185.03 21.6817 187.929 24.0245 187.929 28.7984C187.929 33.5724 185.008 35.8931 181.622 35.8931C179.277 35.8931 178.126 34.8543 177.662 34.3459H177.396V40.8659H173.568V21.969H177.263ZM180.605 33.1082C182.618 33.1082 184.012 31.5611 184.012 28.7984C184.012 26.0357 182.618 24.4886 180.605 24.4886C178.591 24.4886 177.197 26.0357 177.197 28.7984C177.197 31.5611 178.591 33.1082 180.605 33.1082ZM194.434 16.8193V23.4277H194.7L194.708 23.417C195.091 22.9442 196.114 21.6817 198.793 21.6817C201.847 21.6817 203.949 23.4277 203.949 26.6767V35.6499H200.099V27.0524C200.099 25.3506 199.147 24.5328 197.621 24.5328C195.917 24.5328 194.456 25.5053 194.456 27.9807V35.6499H190.606V16.8193H194.434ZM88.6428 21.9691H84.8147V30.2572C84.8147 31.517 85.0802 32.5558 85.6334 33.3956C86.1866 34.2355 86.9832 34.8985 87.9347 35.2743C90.1917 36.1141 92.6921 36.1141 94.9712 35.2743C95.9227 34.8985 96.7414 34.2355 97.2946 33.3956C97.8478 32.5558 98.1133 31.517 98.1133 30.2572V21.9691H94.2631V30.2793C94.2853 30.9865 94.0419 31.6717 93.5551 32.2021C93.0904 32.6884 92.3823 32.9315 91.4529 32.9315C90.5236 32.9315 89.8155 32.6884 89.3508 32.2021C88.864 31.6938 88.6206 30.9865 88.6428 30.2793V21.9691Z" fill="black"/>
</svg>
