<svg width="654" height="160" viewBox="0 0 654 160" fill="none" xmlns="http://www.w3.org/2000/svg">
<path d="M264.191 127.968H287.761L268.255 89.092C280.04 84.892 287.219 75.004 287.219 62C287.219 44.932 275.028 31.928 256.064 31.928H218V127.968H239.402V92.208H246.988L264.191 127.968V127.968ZM239.402 73.785V50.486H252C260.805 50.486 265.546 54.956 265.546 62.136C265.546 68.908 260.805 73.785 252 73.785H239.402ZM296.317 109.41C296.317 120.112 304.851 129.865 319.616 129.865C328.556 129.865 335.058 126.072 338.58 120.382C338.58 124.988 339.122 127.426 339.257 127.968H357.815C357.68 127.291 357.002 122.821 357.002 117.538V84.622C357.002 70.805 349.01 58.614 327.202 58.614C307.425 58.614 298.484 71.347 297.672 80.964L315.552 84.621C315.958 79.61 319.887 74.733 327.066 74.733C333.568 74.733 336.954 78.119 336.954 82.048C336.954 84.351 335.735 86.112 332.078 86.653L316.229 89.092C305.122 90.717 296.317 97.49 296.317 109.41V109.41ZM324.628 114.964C318.939 114.964 316.636 111.578 316.636 108.056C316.636 103.315 319.887 101.283 324.221 100.606L336.954 98.574V101.554C336.954 111.984 330.723 114.964 324.628 114.964V114.964ZM417.132 60.645C415.777 60.239 413.746 59.968 411.714 59.968C406.295 59.968 397.761 62.135 394.24 69.721V60.645H374.327V127.968H394.917V98.574C394.917 85.164 402.367 80.287 410.63 80.287C412.662 80.287 414.829 80.422 417.132 80.964V60.645V60.645ZM450.211 127.968V60.645H429.622V127.968H450.211ZM427.861 40.056C427.861 46.693 433.279 52.112 439.781 52.112C446.554 52.112 451.972 46.693 451.972 40.056C451.972 33.418 446.554 28 439.781 28C433.279 28 427.861 33.418 427.861 40.056ZM488.161 127.968V120.382C491.276 125.53 498.185 129.458 507.125 129.458C525.954 129.458 539.228 114.693 539.228 94.104C539.228 73.92 527.444 59.02 507.938 59.02C498.726 59.02 491.276 62.813 488.432 67.012V29.896H468.248V127.968H488.161V127.968ZM518.639 94.239C518.639 105.482 511.46 111.036 503.468 111.036C495.475 111.036 488.161 105.347 488.161 94.239C488.161 82.861 495.475 77.578 503.468 77.578C511.46 77.578 518.639 82.861 518.639 94.239ZM573.103 127.968V29.896H552.513V127.968H573.103V127.968ZM606.85 86.247C607.256 81.235 611.591 74.868 620.26 74.868C630.013 74.868 633.535 81.1 633.806 86.247H606.85ZM635.296 103.721C633.399 109.004 629.2 112.526 621.75 112.526C613.758 112.526 606.85 107.108 606.443 99.522H653.312C653.447 99.115 653.718 96 653.718 93.155C653.718 71.482 640.85 58.614 619.989 58.614C602.515 58.614 586.395 72.43 586.395 94.104C586.395 116.725 602.921 130 621.479 130C638.547 130 649.248 120.247 652.499 108.598L635.296 103.721V103.721Z" fill="black"/>
<path d="M132.25 0H27.75C12.4241 0 0 12.4241 0 27.75V132.25C0 147.576 12.4241 160 27.75 160H132.25C147.576 160 160 147.576 160 132.25V27.75C160 12.4241 147.576 0 132.25 0Z" fill="black"/>
<path d="M109.603 82.214C114.643 80.904 119.127 77.134 119.127 69.555C119.127 56.936 108.413 54 94.682 54H40V110.825H63.016V91.539H90.317C94.524 91.539 96.984 93.206 96.984 97.333V110.825H120V96.619C120 88.881 115.635 83.999 109.603 82.214ZM90.714 76.222H76.865H63.016V70.666H90.714C93.73 70.666 95.555 71.063 95.555 73.444C95.555 75.825 93.729 76.222 90.714 76.222Z" fill="#F3F6FA"/>
</svg>
